#!OML:ASF E:\motion texture\Top Level 1\Subject 1\Session 1\male.ASF
:FULLY-SPECIFIED
:DEGREES
247
root 16.4203 17.8656 3.57451 159.847 -73.6307 -150.705
lowerback 0.136675 -1.81702 5.64324
upperback -0.739604 -2.44201 2.95913
thorax -0.941614 -1.28072 -0.090816
lowerneck -18.3425 -5.24908 -9.09373
upperneck 10.4843 -6.21686 9.17416
head 6.77102 -2.61798 3.75289
rclavicle -4.25896e-014 1.11319e-014
rhumerus 8.58325 20.8323 -38.2402
rradius 109.597
rwrist 18.806
rhand -32.2231 -21.822
rfingers 7.12502
rthumb -5.46418 -51.7316
lclavicle -4.25896e-014 1.11319e-014
lhumerus -3.43614 -31.551 84.5687
lradius 78.4797
lwrist 15.9552
lhand -1.89932 27.8637
lfingers 7.12502
lthumb 23.77 56.4135
rfemur -8.07519 6.37144 33.247
rtibia 19.259
rfoot -13.377 -7.83517
rtoes 12.7743
lfemur -33.0466 3.16088 -8.02741
ltibia 31.637
lfoot -7.98629 7.06429
ltoes -14.6564
248
root 16.2613 17.8529 3.55309 159.906 -73.3866 -150.754
lowerback -0.0251893 -1.79861 5.80492
upperback -0.872586 -2.42557 2.98216
thorax -0.992833 -1.27796 -0.159503
lowerneck -18.4625 -5.19958 -9.00092
upperneck 10.6812 -6.1467 9.00083
head 6.83831 -2.58988 3.68863
rclavicle 1.02188e-014 -4.77083e-014
rhumerus 9.52853 18.8244 -36.6683
rradius 110.57
rwrist 18.4879
rhand -32.5349 -22.5213
rfingers 7.12502
rthumb -5.76522 -52.4229
lclavicle 1.02188e-014 -4.77083e-014
lhumerus -3.69613 -30.8995 83.7843
lradius 78.3436
lwrist 14.3982
lhand -2.45282 27.0664
lfingers 7.12502
lthumb 23.239 55.6841
rfemur -7.44626 6.35744 33.3464
rtibia 19.2168
rfoot -13.7062 -7.81401
rtoes 12.15
lfemur -33.0841 3.16751 -7.81436
ltibia 30.2536
lfoot -7.85702 7.33847
ltoes -14.7074
249
root 16.1017 17.8395 3.53147 159.953 -73.1605 -150.787
lowerback -0.182654 -1.77965 5.96596
upperback -1.00637 -2.4085 3.0026
thorax -1.04741 -1.27527 -0.230217
lowerneck -18.5859 -5.15191 -8.90127
upperneck 10.8766 -6.07952 8.82341
head 6.90595 -2.56348 3.62149
rclavicle 2.38604e-014 5.46658e-015
rhumerus 10.4544 16.7072 -35.1875
rradius 111.522
rwrist 18.195
rhand -32.8557 -23.2807
rfingers 7.12502
rthumb -6.07492 -53.1736
lclavicle 2.38604e-014 5.46658e-015
lhumerus -4.01781 -30.2193 83.0297
lradius 78.1708
lwrist 12.8914
lhand -3.05635 26.3635
lfingers 7.12502
lthumb 22.6599 55.0533
rfemur -6.84248 6.32687 33.4337
rtibia 19.2085
rfoot -14.0299 -7.78838
rtoes 11.5082
lfemur -33.1206 3.15938 -7.61182
ltibia 28.9142
lfoot -7.71479 7.59445
ltoes -14.7482
250
root 15.9408 17.8254 3.50971 159.992 -72.9439 -150.809
lowerback -0.334637 -1.75733 6.12934
upperback -1.13823 -2.38709 3.02011
thorax -1.1031 -1.27074 -0.305039
lowerneck -18.7133 -5.107 -8.79477
upperneck 11.0714 -6.01677 8.64265
head 6.97448 -2.53937 3.55153
rclavicle 2.18446e-014 -2.18166e-014
rhumerus 11.3637 14.4844 -33.8037
rradius 112.451
rwrist 17.9277
rhand -33.1828 -24.0921
rfingers 7.12502
rthumb -6.39064 -53.9757
lclavicle 2.18446e-014 -2.18166e-014
lhumerus -4.40002 -29.5137 82.3062
lradius 77.9603
lwrist 11.4344
lhand -3.65304 25.7507
lfingers 7.12502
lthumb 22.0871 54.5093
rfemur -6.25692 6.2828 33.5108
rtibia 19.2361
rfoot -14.346 -7.75175
rtoes 10.836
lfemur -33.1449 3.14056 -7.41684
ltibia 27.6195
lfoot -7.54961 7.82335
ltoes -14.7534
251
root 15.779 17.8107 3.48784 160.018 -72.7423 -150.817
lowerback -0.480123 -1.73377 6.29268
upperback -1.27038 -2.36393 3.03568
thorax -1.16272 -1.26575 -0.381498
lowerneck -18.8411 -5.06448 -8.68144
upperneck 11.2641 -5.9578 8.4565
head 7.04269 -2.51751 3.47816
rclavicle 6.06744e-014 5.71506e-015
rhumerus 12.2609 12.1636 -32.52
rradius 113.354
rwrist 17.6862
rhand -33.5181 -24.952
rfingers 7.12502
rthumb -6.7144 -54.8255
lclavicle 6.06744e-014 5.71506e-015
lhumerus -4.84262 -28.7862 81.6171
lradius 77.7119
lwrist 10.0359
lhand -4.27968 25.2357
lfingers 7.12502
lthumb 21.4854 54.0642
rfemur -5.69357 6.22333 33.576
rtibia 19.3013
rfoot -14.6526 -7.70571
rtoes 10.1359
lfemur -33.1648 3.10431 -7.23122
ltibia 26.3808
lfoot -7.35791 8.03101
ltoes -14.748
252
root 15.6161 17.7956 3.46588 160.042 -72.5579 -150.821
lowerback -0.618664 -1.70771 6.45136
upperback -1.40176 -2.33724 3.04742
thorax -1.22521 -1.25928 -0.45902
lowerneck -18.9764 -5.02619 -8.55947
upperneck 11.4587 -5.90522 8.26448
head 7.11325 -2.49891 3.40053
rclavicle 4.32885e-014 -1.07095e-014
rhumerus 13.1462 9.74625 -31.3408
rradius 114.23
rwrist 17.4696
rhand -33.8611 -25.8638
rfingers 7.12502
rthumb -7.04545 -55.7265
lclavicle 4.32885e-014 -1.07095e-014
lhumerus -5.33892 -28.0463 80.9615
lradius 77.4249
lwrist 8.69763
lhand -4.92628 24.8128
lfingers 7.12502
lthumb 20.8642 53.7109
rfemur -5.15386 6.14878 33.6244
rtibia 19.4073
rfoot -14.9478 -7.64925
rtoes 9.40641
lfemur -33.1822 3.04541 -7.05942
ltibia 25.2051
lfoot -7.14562 8.21913
ltoes -14.7422
253
root 15.4522 17.78 3.44381 160.062 -72.3926 -150.821
lowerback -0.753602 -1.68249 6.60426
upperback -1.53302 -2.31169 3.0564
thorax -1.28952 -1.25365 -0.535951
lowerneck -19.1064 -4.98858 -8.43237
upperneck 11.6499 -5.85416 8.06767
head 7.18193 -2.48164 3.32028
rclavicle 3.20121e-014 -6.41329e-014
rhumerus 14.0336 7.24485 -30.2749
rradius 115.074
rwrist 17.285
rhand -34.2064 -26.8121
rfingers 7.12502
rthumb -7.3788 -56.6634
lclavicle 3.20121e-014 -6.41329e-014
lhumerus -5.89009 -27.2899 80.3401
lradius 77.0999
lwrist 7.42868
lhand -5.59567 24.4808
lfingers 7.12502
lthumb 20.221 53.4483
rfemur -4.63901 6.05856 33.6552
rtibia 19.5552
rfoot -15.2279 -7.58171
rtoes 8.64321
lfemur -33.2009 2.96425 -6.90319
ltibia 24.1021
lfoot -6.91719 8.37539
ltoes -14.6887
254
root 15.2872 17.7642 3.42169 160.077 -72.2463 -150.818
lowerback -0.88185 -1.65658 6.75027
upperback -1.66259 -2.28497 3.06192
thorax -1.35562 -1.24763 -0.612351
lowerneck -19.2398 -4.95418 -8.30008
upperneck 11.8417 -5.80805 7.86819
head 7.25192 -2.46691 3.2376
rclavicle -1.37348e-014 2.25745e-014
rhumerus 14.924 4.66372 -29.3242
rradius 115.886
rwrist 17.1285
rhand -34.5606 -27.8043
rfingers 7.12502
rthumb -7.72065 -57.6434
lclavicle -1.37348e-014 2.25745e-014
lhumerus -6.48831 -26.5261 79.7527
lradius 76.7361
lwrist 6.23339
lhand -6.26322 24.2365
lfingers 7.12502
lthumb 19.5793 53.2706
rfemur -4.14897 5.95192 33.6676
rtibia 19.7488
rfoot -15.4912 -7.50115
rtoes 7.85153
lfemur -33.2193 2.8595 -6.7643
ltibia 23.0768
lfoot -6.67549 8.50853
ltoes -14.6011
255
root 15.1211 17.7483 3.39959 160.086 -72.1181 -150.811
lowerback -1.00178 -1.62927 6.89029
upperback -1.79062 -2.2559 3.06372
thorax -1.42455 -1.24064 -0.688967
lowerneck -19.373 -4.92372 -8.16383
upperneck 12.032 -5.76796 7.66742
head 7.32207 -2.45526 3.153
rclavicle -1.82105e-014 2.82212e-014
rhumerus 15.821 2.01189 -28.4918
rradius 116.665
rwrist 17.0016
rhand -34.927 -28.8352
rfingers 7.12502
rthumb -8.07428 -58.661
lclavicle -1.82105e-014 2.82212e-014
lhumerus -7.13112 -25.7588 79.2006
lradius 76.3348
lwrist 5.11418
lhand -6.92522 24.0719
lfingers 7.12502
lthumb 18.9427 53.1695
rfemur -3.68339 5.82844 33.6614
rtibia 19.9902
rfoot -15.735 -7.40299
rtoes 7.03657
lfemur -33.2362 2.73014 -6.64254
ltibia 22.1363
lfoot -6.42638 8.63193
ltoes -14.4921
